<?xml version="1.0" encoding="us-ascii" standalone="no"?><svg xmlns="http://www.w3.org/2000/svg" xmlns:xlink="http://www.w3.org/1999/xlink" contentStyleType="text/css" height="555.1px" preserveAspectRatio="none" style="width:296px;height:555px;background:#FFFFFF;" version="1.1" viewBox="0 0 296 555" width="296.1px" zoomAndPan="magnify"><defs/><g><text fill="#000000" font-family="sans-serif" font-size="9.8" font-weight="bold" lengthAdjust="spacing" textLength="268.1" x="9.3841" y="17.5752">Dream House Management System - Use Case Diagram</text><!--entity NetworkManager--><g id="elem_NetworkManager"><ellipse cx="41.3" cy="473.2848" fill="#F1F1F1" rx="5.6" ry="5.6" style="stroke:#181818;stroke-width:0.3499999999999999;"/><path d="M41.3,478.8848 L41.3,497.7848 M32.2,484.4848 L50.4,484.4848 M41.3,497.7848 L32.2,508.2848 M41.3,497.7848 L50.4,508.2848 " fill="none" style="stroke:#181818;stroke-width:0.3499999999999999;"/><text fill="#000000" font-family="sans-serif" font-size="9.8" lengthAdjust="spacing" textLength="74.2" x="4.2" y="519.91">NetworkManager</text></g><!--entity Owner--><g id="elem_Owner"><ellipse cx="41.3" cy="377.3848" fill="#F1F1F1" rx="5.6" ry="5.6" style="stroke:#181818;stroke-width:0.3499999999999999;"/><path d="M41.3,382.9848 L41.3,401.8848 M32.2,388.5848 L50.4,388.5848 M41.3,401.8848 L32.2,412.3848 M41.3,401.8848 L50.4,412.3848 " fill="none" style="stroke:#181818;stroke-width:0.3499999999999999;"/><text fill="#000000" font-family="sans-serif" font-size="9.8" lengthAdjust="spacing" textLength="28.7" x="26.95" y="424.01">Owner</text></g><!--entity RealEstateAgent--><g id="elem_RealEstateAgent"><ellipse cx="41.3" cy="263.9848" fill="#F1F1F1" rx="5.6" ry="5.6" style="stroke:#181818;stroke-width:0.3499999999999999;"/><path d="M41.3,269.5848 L41.3,288.4848 M32.2,275.1848 L50.4,275.1848 M41.3,288.4848 L32.2,298.9848 M41.3,288.4848 L50.4,298.9848 " fill="none" style="stroke:#181818;stroke-width:0.3499999999999999;"/><text fill="#000000" font-family="sans-serif" font-size="9.8" lengthAdjust="spacing" textLength="74.2" x="4.2" y="310.61">RealEstateAgent</text></g><!--entity Client--><g id="elem_Client"><ellipse cx="41.3" cy="86.8848" fill="#F1F1F1" rx="5.6" ry="5.6" style="stroke:#181818;stroke-width:0.3499999999999999;"/><path d="M41.3,92.4848 L41.3,111.3848 M32.2,98.0848 L50.4,98.0848 M41.3,111.3848 L32.2,121.8848 M41.3,111.3848 L50.4,121.8848 " fill="none" style="stroke:#181818;stroke-width:0.3499999999999999;"/><text fill="#000000" font-family="sans-serif" font-size="9.8" lengthAdjust="spacing" textLength="25.2" x="28.7" y="133.51">Client</text></g><g id="elem_viewProp"><ellipse cx="206.5648" cy="49.0977" fill="#F1F1F1" rx="77.4148" ry="17.163" style="stroke:#181818;stroke-width:0.3499999999999999;"/><text fill="#000000" font-family="sans-serif" font-size="9.8" lengthAdjust="spacing" textLength="127.4" x="142.8648" y="51.7555">UC01 - View listed properties</text></g><g id="elem_checkAdv"><ellipse cx="206.3634" cy="108.6274" fill="#F1F1F1" rx="79.3134" ry="17.5427" style="stroke:#181818;stroke-width:0.3499999999999999;"/><text fill="#000000" font-family="sans-serif" font-size="9.8" lengthAdjust="spacing" textLength="131.6" x="140.5634" y="111.2853">UC02 - Checks advertisement</text></g><g id="elem_schedVisit"><ellipse cx="206.6563" cy="166.016" fill="#F1F1F1" rx="68.7563" ry="15.4313" style="stroke:#181818;stroke-width:0.3499999999999999;"/><text fill="#000000" font-family="sans-serif" font-size="9.8" lengthAdjust="spacing" textLength="107.8" x="151.6049" y="169.0844">UC03 - Schedules a visit</text></g><g id="elem_ConfVisit"><ellipse cx="206.661" cy="224.257" fill="#F1F1F1" rx="83.461" ry="18.3722" style="stroke:#181818;stroke-width:0.3499999999999999;"/><text fill="#000000" font-family="sans-serif" font-size="9.8" lengthAdjust="spacing" textLength="140.7" x="136.311" y="226.9148">UC04 - Confirms scheduled visit</text></g><g id="elem_managAdv"><ellipse cx="206.5174" cy="285.8283" fill="#F1F1F1" rx="85.0674" ry="18.6935" style="stroke:#181818;stroke-width:0.3499999999999999;"/><text fill="#000000" font-family="sans-serif" font-size="9.8" lengthAdjust="spacing" textLength="144.2" x="134.4174" y="288.4861">UC05 - Manages advertisements</text></g><g id="elem_managProp"><ellipse cx="206.5557" cy="344.6359" fill="#F1F1F1" rx="69.3557" ry="15.5511" style="stroke:#181818;stroke-width:0.3499999999999999;"/><text fill="#000000" font-family="sans-serif" font-size="9.8" lengthAdjust="spacing" textLength="109.2" x="150.9884" y="347.6428">UC06 - Manage property</text></g><g id="elem_listProp"><ellipse cx="206.4861" cy="398.942" fill="#F1F1F1" rx="64.3861" ry="14.5572" style="stroke:#181818;stroke-width:0.3499999999999999;"/><text fill="#000000" font-family="sans-serif" font-size="9.8" lengthAdjust="spacing" textLength="97.3" x="155.7361" y="402.3046">UC07 - List a property</text></g><g id="elem_createBranch"><ellipse cx="206.4216" cy="473.8991" fill="#F1F1F1" rx="64.6716" ry="14.6143" style="stroke:#181818;stroke-width:0.3499999999999999;"/><text fill="#000000" font-family="sans-serif" font-size="9.8" lengthAdjust="spacing" textLength="98" x="155.3216" y="477.2617">UC08 - Create Branch</text></g><g id="elem_createREA"><ellipse cx="206.4341" cy="532.0716" fill="#F1F1F1" rx="86.0341" ry="18.8868" style="stroke:#181818;stroke-width:0.3499999999999999;"/><text fill="#000000" font-family="sans-serif" font-size="9.8" lengthAdjust="spacing" textLength="146.3" x="133.2841" y="534.7294">UC09 - Create Real Estate Agent</text></g><!--link NetworkManager to createBranch--><g id="link_NetworkManager_createBranch"><path d="M78.554,490.2948 C99.491,487.6138 122.0231,484.7248 145.5571,481.7078 " fill="none" id="NetworkManager-to-createBranch" style="stroke:#181818;stroke-width:0.6999999999999998;"/><polygon fill="#181818" points="149.723,481.1738,143.1181,479.1976,146.2514,481.6188,143.8302,484.7521,149.723,481.1738" style="stroke:#181818;stroke-width:0.6999999999999998;"/></g><!--link NetworkManager to createREA--><g id="link_NetworkManager_createREA"><path d="M78.554,503.2658 C98.448,507.7738 119.4608,512.5296 142.1058,517.6606 " fill="none" id="NetworkManager-to-createREA" style="stroke:#181818;stroke-width:0.6999999999999998;"/><polygon fill="#181818" points="146.202,518.5888,140.6765,514.4658,142.7885,517.8153,139.439,519.9274,146.202,518.5888" style="stroke:#181818;stroke-width:0.6999999999999998;"/></g><!--link Owner to listProp--><g id="link_Owner_listProp"><path d="M55.685,399.0848 C74.676,399.0848 106.078,399.0848 137.851,399.0848 " fill="none" id="Owner-to-listProp" style="stroke:#181818;stroke-width:0.6999999999999998;"/><polygon fill="#181818" points="142.051,399.0848,135.751,396.2848,138.551,399.0848,135.751,401.8848,142.051,399.0848" style="stroke:#181818;stroke-width:0.6999999999999998;"/></g><!--link RealEstateAgent to ConfVisit--><g id="link_RealEstateAgent_ConfVisit"><path d="M78.414,271.1318 C91.609,265.9238 106.645,260.0648 120.4,254.8848 C133.973,249.7748 144.8607,245.7777 158.3147,240.9407 " fill="none" id="RealEstateAgent-to-ConfVisit" style="stroke:#181818;stroke-width:0.6999999999999998;"/><polygon fill="#181818" points="162.267,239.5198,155.3912,239.0163,158.9734,240.7039,157.2858,244.2861,162.267,239.5198" style="stroke:#181818;stroke-width:0.6999999999999998;"/></g><!--link RealEstateAgent to managAdv--><g id="link_RealEstateAgent_managAdv"><path d="M78.554,285.6848 C91.287,285.6848 101.948,285.6848 116.935,285.6848 " fill="none" id="RealEstateAgent-to-managAdv" style="stroke:#181818;stroke-width:0.6999999999999998;"/><polygon fill="#181818" points="121.135,285.6848,114.835,282.8848,117.635,285.6848,114.835,288.4848,121.135,285.6848" style="stroke:#181818;stroke-width:0.6999999999999998;"/></g><!--link RealEstateAgent to managProp--><g id="link_RealEstateAgent_managProp"><path d="M78.526,300.5388 C91.665,305.7468 106.638,311.5288 120.4,316.4848 C135.156,321.7978 147.492,325.9547 161.884,330.6237 " fill="none" id="RealEstateAgent-to-managProp" style="stroke:#181818;stroke-width:0.6999999999999998;"/><polygon fill="#181818" points="165.879,331.9198,160.7505,327.3123,162.5498,330.8397,159.0224,332.639,165.879,331.9198" style="stroke:#181818;stroke-width:0.6999999999999998;"/></g><!--link Client to viewProp--><g id="link_Client_viewProp"><path d="M53.907,103.8668 C69.23,97.8258 96.698,87.1088 120.4,78.4848 C134.323,73.4168 145.631,69.4449 159.372,64.7339 " fill="none" id="Client-to-viewProp" style="stroke:#181818;stroke-width:0.6999999999999998;"/><polygon fill="#181818" points="163.345,63.3718,156.4774,62.7663,160.0342,64.5069,158.2936,68.0636,163.345,63.3718" style="stroke:#181818;stroke-width:0.6999999999999998;"/></g><!--link Client to checkAdv--><g id="link_Client_checkAdv"><path d="M54.047,108.5848 C69.748,108.5848 94.353,108.5848 122.682,108.5848 " fill="none" id="Client-to-checkAdv" style="stroke:#181818;stroke-width:0.6999999999999998;"/><polygon fill="#181818" points="126.882,108.5848,120.582,105.7848,123.382,108.5848,120.582,111.3848,126.882,108.5848" style="stroke:#181818;stroke-width:0.6999999999999998;"/></g><!--link Client to schedVisit--><g id="link_Client_schedVisit"><path d="M54.166,113.3238 C69.531,119.2738 96.81,129.6968 120.4,137.9848 C135.345,143.2348 147.8636,147.4247 162.3606,152.1357 " fill="none" id="Client-to-schedVisit" style="stroke:#181818;stroke-width:0.6999999999999998;"/><polygon fill="#181818" points="166.355,153.4338,161.2288,148.8238,163.0263,152.3521,159.4981,154.1496,166.355,153.4338" style="stroke:#181818;stroke-width:0.6999999999999998;"/></g><!--SRC=[VPB9ReCm48RlVegv5GuqtRT3fPH4wg6R4gLt2oPWXKtsX2Xltp4umKHjBmZ_yyq-PpbHOvucawQG5MtBuZofoydMO9H8_gHAPbgMGf2Y0c6cKPRmMhCTtcKbCoon8bZk3M494QnOZzaFPWU_0jS4L8DMMKwGAeq9gReIGYPKQ_X0sjLwqyVIJlpSLSV_1SfYRaWIJZDEvTIuKFOXWbLySSbvlnNke51SHGgDhXlKfD2480q4BTk-M0ix-ehfECTaOq2chULCrqFF9jOoJTkUlMPsoLAwBP1nQ9LH3ZHM_kxU7NfZmzRLMkdIW74-gUzXhPx3BJlqNPyKugekhUrOoTsHFhItzx2XktlctdWCNEoOixCPi0TRBQ-I45wqh9BSTTz9Jkd0nm6qYu1-4z2jmlTPpAUX4EDbGXGzdyRyc-WZ1Dtgmzumr2o2apDmX3_JtmblZFy0XopzMJcBTpSZtRkHaUwVXFW1]--></g></svg>